<?xml version="1.0" encoding="UTF-8" standalone="no"?>
<svg
   xmlns:dc="http://purl.org/dc/elements/1.1/"
   xmlns:cc="http://creativecommons.org/ns#"
   xmlns:rdf="http://www.w3.org/1999/02/22-rdf-syntax-ns#"
   xmlns:svg="http://www.w3.org/2000/svg"
   xmlns="http://www.w3.org/2000/svg"
   xmlns:sodipodi="http://sodipodi.sourceforge.net/DTD/sodipodi-0.dtd"
   xmlns:inkscape="http://www.inkscape.org/namespaces/inkscape"
   viewBox="0 0 500 500"
   height="500"
   width="500"
   id="svg2"
   version="1.1"
   sodipodi:docname="logo.svg"
   inkscape:version="0.92.2 2405546, 2018-03-11">
  <sodipodi:namedview
     pagecolor="#ffffff"
     bordercolor="#666666"
     borderopacity="1"
     objecttolerance="10"
     gridtolerance="10"
     guidetolerance="10"
     inkscape:pageopacity="0"
     inkscape:pageshadow="2"
     inkscape:window-width="2560"
     inkscape:window-height="1409"
     id="namedview18"
     showgrid="false"
     inkscape:zoom="2.19775"
     inkscape:cx="89.608691"
     inkscape:cy="250"
     inkscape:window-x="0"
     inkscape:window-y="31"
     inkscape:window-maximized="0"
     inkscape:current-layer="svg2" />
  <metadata
     id="metadata8">
    <rdf:RDF>
      <cc:Work
         rdf:about="">
        <dc:format>image/svg+xml</dc:format>
        <dc:type
           rdf:resource="http://purl.org/dc/dcmitype/StillImage" />
        <dc:title />
      </cc:Work>
    </rdf:RDF>
  </metadata>
  <defs
     id="defs6">
    <clipPath
       id="clipPath853"
       clipPathUnits="userSpaceOnUse">
      <g
         transform="translate(416)"
         id="g859">
        <circle
           r="195.98291"
           cy="308.04877"
           cx="-232.14674"
           id="circle855"
           style="fill:#7a7a7a;fill-opacity:1;stroke-width:1.30655277" />
        <rect
           style="fill:#7a7a7a;fill-opacity:1"
           id="rect857"
           width="530.33899"
           height="412.90677"
           x="-467.2034"
           y="-10.101695" />
      </g>
    </clipPath>
  </defs>
  <circle
     r="195.98291"
     cy="280.54269"
     cx="239.98506"
     id="path841"
     style="fill:#ffffff;fill-opacity:1;stroke-width:1.30655277" />
  <path
     inkscape:connector-curvature="0"
     style="fill:#ee5922"
     d="m 293.63181,534.95627 c -8.31387,-2.10516 -22.71092,-9.30555 -30.6423,-15.32511 -13.88842,-10.54068 -28.30206,-28.88899 -39.77843,-50.63722 -13.90498,-26.35057 -25.21852,-57.67051 -32.149,-89 -5.20105,-23.51157 -6.04064,-25.63885 -11.26371,-28.53912 -2.29161,-1.27249 -8.89156,-5.46287 -14.66656,-9.31197 -32.48668,-21.65272 -57.04168,-44.79898 -64.48264,-60.78323 -3.244025,-6.96863 -3.2352,-10.87511 0.032,-14.14226 6.77214,-6.77214 28.869,-3.26173 58.45069,9.28575 9.74239,4.13237 12,4.64499 12,2.72476 0,-1.62416 5.67033,-4.62103 19,-10.04183 36.22558,-14.73191 87.55849,-24.86009 132,-26.04408 24.01627,-0.63984 52.88741,1.38225 55.38417,3.87901 0.728,0.728 2.34722,6.19473 3.59826,12.1483 1.25105,5.95357 2.63627,11.78618 3.07827,12.96135 0.442,1.17518 4.32166,4.30623 8.62147,6.9579 17.69503,10.91243 29.61935,19.75464 42.55737,31.55744 14.34689,13.08805 21.19273,23.27343 20.56496,30.59696 -0.87878,10.25194 -15.70464,10.77382 -44.63533,1.57121 -9.80698,-3.11952 -14.6551,-4.23426 -15.35805,-3.53131 -0.70295,0.70295 -0.60679,5.55458 0.30462,15.36917 1.68417,18.13615 1.68573,61.75808 0.003,76.84195 -6.1623,55.23014 -28.17809,91.40658 -62.10165,102.04571 -8.89784,2.79054 -31.91288,3.59524 -40.51684,1.41662 z M 252.70954,331.72863 c 1.75877,-1.19895 1.05694,-15.61712 -0.90602,-18.61297 -0.91944,-1.40324 -1.67171,-3.48131 -1.67171,-4.61792 0,-2.72913 -2.9341,-3.81441 -4.50485,-1.66628 -0.6686,0.91436 -1.81684,1.66248 -2.55164,1.66248 -2.38875,0 -8.9646,5.23583 -9.56118,7.61282 -0.31964,1.27353 -1.46265,2.59529 -2.54004,2.93724 -2.78675,0.88448 -2.05905,4.84835 0.96886,5.2775 1.27113,0.18016 2.56321,0.98443 2.87128,1.78726 0.75122,1.95765 6.77451,4.38518 10.88068,4.38518 1.82537,0 3.59697,0.45 3.93689,1 0.72803,1.17797 1.59682,1.24422 3.07773,0.23469 z m -13.50515,-7.86955 c -2.47671,-3.14862 -2.60421,-5.16112 -0.51588,-8.14263 2.06654,-2.9504 6.45172,-2.90691 9.26899,0.0919 2.82185,3.00373 2.74695,5.20382 -0.28024,8.231 -3.16834,3.16835 -5.88428,3.11055 -8.47287,-0.18031 z m -61.08072,-88.87837 c -8.05596,-1.63437 -22.87518,-7.97907 -30.64828,-13.12174 -15.23141,-10.07708 -29.49901,-28.69728 -36.72045,-47.92271 -5.92201,-15.76599 -7.63694,-24.13709 -8.29253,-40.47824 -0.72485,-18.06748 0.4382,-28.18815 4.66869,-40.626153 5.78757,-17.01598 15.03001,-29.486614 30.00071,-40.479365 12.30872,-9.0381 39.41361,-16.546566 86.5,-23.961818 21.61263,-3.403596 40.86665,-4.887295 63.79136,-4.915708 22.21524,-0.02753 34.00547,0.90339 43.82086,3.459972 8.17694,2.129823 22.50141,9.727698 29.98249,15.903081 37.7677,31.175988 50.09044,98.525731 25.59782,139.904521 -6.02636,10.18117 -17.7208,21.5059 -27.38025,26.51465 -17.05089,8.84147 -62.11568,20.20238 -92.30598,23.2705 -5.77847,0.58724 -14.1063,1.54484 -18.5063,2.128 -12.64105,1.67538 -62.71432,1.9062 -70.50814,0.32501 z m 87.62513,-63.61024 c 3.82119,-1.15707 9.66877,-6.85161 11.93085,-11.61858 1.92176,-4.04981 3.12593,-11.25795 1.88072,-11.25795 -1.5363,0 -34.8696,4.04331 -39.42856,4.78266 -6.31016,1.02335 -6.40997,3.4328 -0.41829,10.09699 8.17112,9.08826 15.25025,11.26265 26.03528,7.99688 z M 195.98875,139.4296 c 15.78488,-2.08305 19.93677,-3.54195 17.37385,-6.10487 -0.91132,-0.91132 -5.2672,-0.67521 -18.94098,1.0267 -9.76662,1.21561 -18.16202,2.61472 -18.65643,3.10913 -1.44773,1.44773 0.11786,4.03338 2.44217,4.03338 1.17608,0 9.1777,-0.92895 17.78139,-2.06434 z m 123.4408,-0.2867 c 7.06648,-2.95257 12.65352,-12.97328 11.1413,-19.98264 -2.87787,-13.33929 -14.99571,-20.803183 -26.18456,-16.12818 -4.95886,2.07194 -7.18895,4.20404 -9.37375,8.96186 -7.06434,15.38395 9.22548,33.49638 24.41701,27.14896 z M 90.63181,173.7747 c -4.124636,-1.00484 -7.732272,-6.0761 -11.157072,-15.68352 -3.26864,-9.16935 -3.856411,-30.15767 -0.955104,-34.10518 1.020181,-1.38805 14.639035,-7.49206 16.715789,-7.49206 0.493013,0 0.896387,5.0957 0.896387,11.32378 0,14.62688 2.416317,28.7911 7.66409,44.92622 0.50106,1.54056 -0.13293,1.73612 -5.297459,1.634 -3.226647,-0.0638 -6.766631,-0.33526 -7.866631,-0.60324 z m 314.5,-45.18139 c 0,-8.46445 -3.41394,-27.19009 -6.76372,-37.099373 -1.58036,-4.675 -3.06753,-9.175 -3.30483,-10 -0.36108,-1.25534 0.7097,-1.43991 6.56481,-1.13162 3.84794,0.2026 7.92344,0.72089 9.05667,1.15174 5.39668,2.05182 12.12213,24.860623 11.14439,37.795263 -0.67749,8.96248 -2.23239,11.49747 -8.32584,13.57371 -7.94119,2.70584 -8.37148,2.48535 -8.37148,-4.28972 z"
     id="path825" />
  <path
     inkscape:connector-curvature="0"
     style="fill:#d94419"
     d="m 324.6235,534.70233 c -0.54543,-0.38961 -1.0557,-1.38339 -1.13394,-2.20839 -0.0782,-0.825 -3.13425,-18.6 -6.79114,-39.5 -8.82374,-50.42977 -14.17048,-81.36663 -28.51658,-165 -6.60412,-38.5 -12.40469,-72.14949 -12.89014,-74.77665 -0.48546,-2.62716 -0.58239,-4.96223 -0.2154,-5.18904 0.36699,-0.22681 6.04211,-1.15753 12.61138,-2.06825 15.70084,-2.17668 54.28565,-3.02547 70.44413,-1.54965 19.14973,1.74904 19.70387,1.88362 20.36055,4.94497 0.3113,1.45124 1.27884,6.01362 2.15009,10.13862 3.14952,14.91153 2.95145,14.53403 9.76213,18.60598 28.41312,16.98754 56.45353,41.32876 62.99182,54.68168 5.54923,11.33301 2.41166,15.71234 -11.25709,15.71234 -8.76628,0 -18.74426,-2.01174 -32.39346,-6.53109 -10.68337,-3.53735 -14.08711,-4.13052 -15.02196,-2.6179 -0.28928,0.46806 0.13707,8.00556 0.94744,16.75 1.48967,16.07471 2.05878,57.88327 0.92036,67.61384 -3.84822,32.89269 -7.74602,48.50963 -16.61498,66.56971 -10.6417,21.66995 -26.07587,36.28476 -44.8449,42.4642 -6.85743,2.25771 -9.42161,2.73589 -10.50831,1.95963 z M 236.90332,340.98327 c -9.60893,-3.53005 -15.77151,-12.46628 -15.77151,-22.86995 0,-23.51255 30.21175,-30.87017 42.04465,-10.23935 2.38989,4.16681 2.93833,6.29092 2.94597,11.40981 0.0114,7.6522 -2.23099,12.54814 -8.01465,17.49873 -6.20325,5.30975 -13.98786,6.85194 -21.20446,4.20076 z m 15.80622,-9.25464 c 1.75877,-1.19895 1.05694,-15.61712 -0.90602,-18.61297 -0.91944,-1.40324 -1.67171,-3.48131 -1.67171,-4.61792 0,-2.72913 -2.9341,-3.81441 -4.50485,-1.66628 -0.6686,0.91436 -1.81684,1.66248 -2.55164,1.66248 -2.38875,0 -8.9646,5.23583 -9.56118,7.61282 -0.31964,1.27353 -1.46265,2.59529 -2.54004,2.93724 -2.78675,0.88448 -2.05905,4.84835 0.96886,5.2775 1.27113,0.18016 2.56321,0.98443 2.87128,1.78726 0.75122,1.95765 6.77451,4.38518 10.88068,4.38518 1.82537,0 3.59697,0.45 3.93689,1 0.72803,1.17797 1.59682,1.24422 3.07773,0.23469 z m -13.50515,-7.86955 c -2.47671,-3.14862 -2.60421,-5.16112 -0.51588,-8.14263 2.06654,-2.9504 6.45172,-2.90691 9.26899,0.0919 2.82185,3.00373 2.74695,5.20382 -0.28024,8.231 -3.16834,3.16835 -5.88428,3.11055 -8.47287,-0.18031 z m 31.13124,-98.11514 c -0.55544,-3.1625 -1.81325,-10.79687 -2.79515,-16.96527 -0.98189,-6.16839 -2.27987,-11.40506 -2.8844,-11.63704 -0.60453,-0.23198 -6.4823,0.26938 -13.06171,1.11414 -7.60737,0.97674 -20.88223,1.57274 -36.46256,1.63705 -22.96581,0.0948 -24.93608,-0.0419 -31.46381,-2.18239 -19.97328,-6.54944 -35.57519,-21.17831 -43.12026,-40.43102 -3.55442,-9.06977 -5.71187,-21.82956 -4.93038,-29.15962 0.98499,-9.23867 4.26468,-20.44585 7.78279,-26.59486 3.97946,-6.955373 14.1104,-16.984993 21.57661,-21.360823 11.10224,-6.50684 37.8517,-13.487795 65.48822,-17.090827 5.95824,-0.776789 10.98104,-1.562418 11.16178,-1.745843 0.18074,-0.183425 -0.92929,-7.7585 -2.46673,-16.8335 -1.53744,-9.075 -2.45039,-16.874853 -2.02878,-17.333006 1.10787,-1.203883 17.44435,-2.512739 41.00056,-3.284907 25.13973,-0.824076 44.11136,0.620094 55,4.186743 41.07093,13.45307 68.03682,58.60391 65.6553,109.931173 -1.02381,22.06544 -7.13592,39.20711 -19.19103,53.82208 -12.66176,15.35045 -27.15054,22.56855 -62.46427,31.11879 -10.6185,2.57098 -41.6283,8.55913 -44.32368,8.55913 -0.99683,0 -1.78423,-1.83118 -2.4725,-5.75 z m -4.58683,-54.37347 c 3.82119,-1.15707 9.66877,-6.85161 11.93085,-11.61858 1.92176,-4.04981 3.12593,-11.25795 1.88072,-11.25795 -1.5363,0 -34.8696,4.04331 -39.42856,4.78266 -6.31016,1.02335 -6.40997,3.4328 -0.41829,10.09699 8.17112,9.08826 15.25025,11.26265 26.03528,7.99688 z M 195.98875,139.4296 c 15.78488,-2.08305 19.93677,-3.54195 17.37385,-6.10487 -0.91132,-0.91132 -5.2672,-0.67521 -18.94098,1.0267 -9.76662,1.21561 -18.16202,2.61472 -18.65643,3.10913 -1.44773,1.44773 0.11786,4.03338 2.44217,4.03338 1.17608,0 9.1777,-0.92895 17.78139,-2.06434 z m 123.4408,-0.2867 c 7.06648,-2.95257 12.65352,-12.97328 11.1413,-19.98264 -2.87787,-13.33929 -14.99571,-20.803183 -26.18456,-16.12818 -4.95886,2.07194 -7.18895,4.20404 -9.37375,8.96186 -7.06434,15.38395 9.22548,33.49638 24.41701,27.14896 z m 86.60652,-4.95286 c -0.0527,-0.10786 -0.29048,-2.8961 -0.52849,-6.1961 -1.24185,-17.21808 -4.61884,-32.861913 -9.87592,-45.750003 -0.63035,-1.54534 -0.0873,-1.73616 4.64316,-1.63169 9.57409,0.21146 11.08492,0.89683 14.04215,6.3701 3.41563,6.32168 5.54773,13.215433 6.72985,21.759703 1.15458,8.34525 -0.10754,18.41041 -2.61314,20.83928 -1.45128,1.40684 -12.0392,5.34281 -12.39761,4.60871 z"
     id="path823" />
  <path
     inkscape:connector-curvature="0"
     style="fill:#313131"
     d="m 236.66159,338.95353 c -11.83678,-4.49408 -17.43306,-19.35841 -11.54284,-30.65904 7.7464,-14.86179 29.10243,-14.14305 37.02116,1.24596 4.05941,7.88895 3.44339,15.26923 -1.88893,22.63028 -5.04621,6.96609 -15.32339,9.92115 -23.58939,6.7828 z m -36.11623,-140.573 c -28.83463,-1.75359 -51.02181,-18.86284 -60.12654,-46.36551 -2.28535,-6.90337 -2.65362,-9.69323 -2.64281,-20.02108 0.0109,-10.45695 0.35492,-12.95132 2.67507,-19.39826 1.46438,-4.06904 4.0053,-9.49081 5.64649,-12.04839 6.5689,-10.236733 19.25107,-20.135763 31.03424,-24.223683 20.32924,-7.052783 60.94816,-13.780247 96.74721,-16.023646 36.03948,-2.258466 54.89661,2.178275 71.07292,16.722166 9.36452,8.41951 17.57895,23.638023 20.16472,37.358303 2.46823,13.09665 0.15822,28.15448 -6.19612,40.38934 -6.33712,12.20173 -18.34524,22.09879 -33.23589,27.39294 -11.94187,4.24575 -41.38407,10.50024 -58.05284,12.33232 -4.4,0.4836 -12.49092,1.39244 -17.97982,2.01964 -14.81804,1.6932 -37.66891,2.56145 -49.10663,1.86586 z m 65.20344,-27.01006 c 3.82119,-1.15707 9.66877,-6.85161 11.93085,-11.61858 1.92176,-4.04981 3.12593,-11.25795 1.88072,-11.25795 -1.5363,0 -34.8696,4.04331 -39.42856,4.78266 -6.31016,1.02335 -6.40997,3.4328 -0.41829,10.09699 8.17112,9.08826 15.25025,11.26265 26.03528,7.99688 z M 195.98875,139.4296 c 15.78488,-2.08305 19.93677,-3.54195 17.37385,-6.10487 -0.91132,-0.91132 -5.2672,-0.67521 -18.94098,1.0267 -9.76662,1.21561 -18.16202,2.61472 -18.65643,3.10913 -1.44773,1.44773 0.11786,4.03338 2.44217,4.03338 1.17608,0 9.1777,-0.92895 17.78139,-2.06434 z m 123.4408,-0.2867 c 7.06648,-2.95257 12.65352,-12.97328 11.1413,-19.98264 -2.87787,-13.33929 -14.99571,-20.803183 -26.18456,-16.12818 -4.95886,2.07194 -7.18895,4.20404 -9.37375,8.96186 -7.06434,15.38395 9.22548,33.49638 24.41701,27.14896 z"
     id="path821" />
  <path
     inkscape:connector-curvature="0"
     style="fill:#181818"
     d="m 260.29692,313.31306 c -1.94825,-5.62633 -9.32308,-9.95928 -17.96646,-10.55587 -5.97194,-0.4122 -7.10547,-0.18361 -10.44865,2.10706 -4.49981,3.08317 -4.99334,1.85368 -0.70453,-1.75512 6.10566,-5.13757 15.73117,-5.38849 23.46041,-0.61155 3.6889,2.27986 7.76656,9.14145 7.28247,12.25439 -0.29298,1.88402 -0.55214,1.65429 -1.62324,-1.43891 z m 4.38089,-121.02136 c -0.23534,-0.71377 -0.92218,-3.99776 -1.52631,-7.29776 -0.60413,-3.3 -1.29464,-6.93428 -1.53448,-8.07617 -0.36054,-1.71663 0.50992,-2.46826 5.0264,-4.34024 7.7765,-3.22318 13.64076,-10.9306 15.05745,-19.79008 0.95918,-5.99839 -0.19165,-6.41691 -13.01423,-4.73283 -5.99302,0.7871 -11.15005,1.17744 -11.46007,0.86741 -0.31003,-0.31002 -3.32207,-16.53707 -6.69344,-36.0601 -3.37136,-19.523033 -6.61695,-35.983623 -7.21242,-36.579093 -2.05196,-2.05196 -41.50448,5.01165 -59.72446,10.69313 -22.69068,7.07555 -37.25728,21.153983 -42.95765,41.517973 l -1.53958,5.5 0.44234,-8 c 0.96901,-17.52514 9.62637,-31.781543 25.48979,-41.974973 12.84337,-8.25283 36.13038,-13.982826 79.7045,-19.612059 13.15599,-1.69959 22.5409,-2.208252 42.39616,-2.297872 24.36321,-0.109968 25.81206,-0.0093 32.5,2.257829 17.69567,5.998647 30.07575,16.336282 37.34652,31.185142 5.40531,11.039103 7.17929,18.345553 7.2698,29.941933 0.1604,20.55313 -8.19277,37.21865 -23.87096,47.62524 -10.53752,6.9944 -24.12473,11.25996 -52.24536,16.40184 -23.62334,4.31956 -22.96881,4.24224 -23.454,2.77068 z m 57.70288,-52.95272 c 8.04173,-4.04255 11.94981,-15.79932 8.3688,-25.17607 -2.34227,-6.13316 -8.3658,-11.63721 -14.46774,-13.22003 -2.75414,-0.71442 -5.82708,-1.134793 -6.82874,-0.93417 -1.00166,0.20062 -3.05045,0.62337 -4.55286,0.93945 -3.27234,0.68843 -9.35592,5.82483 -11.18577,9.44422 -5.78129,11.43518 0.79091,26.70159 13.12471,30.48713 5.42962,1.66647 10.07873,1.20564 15.5416,-1.54053 z"
     id="path819" />
  <path
     inkscape:connector-curvature="0"
     id="path819-3"
     d="m 249.78006,334.11075 c -1.31026,-0.25539 -2.21701,-1.40459 -2.13902,-2.71094 0.0691,-1.15597 0.90071,-2.14561 2.02283,-2.407 0.40037,-0.0932 1.03209,-0.0613 1.40716,0.0711 1.93378,0.68276 2.40392,3.15876 0.84966,4.47476 -0.57617,0.48784 -1.41824,0.7129 -2.14063,0.5721 z m -7.35832,-2.8148 c -0.80473,-0.0835 -1.71867,-0.28026 -2.48395,-0.5346 -0.54454,-0.18099 -1.43075,-0.56133 -1.42075,-0.60976 0.006,-0.028 1.41793,-2.56925 1.69965,-3.05869 l 0.092,-0.15971 0.35946,0.14338 c 0.44821,0.17878 1.10334,0.36802 1.56003,0.45063 0.46336,0.0838 1.75175,0.11724 2.20874,0.0573 2.28225,-0.29927 4.23411,-1.49164 5.48815,-3.35267 0.66169,-0.98198 1.14017,-2.25371 1.26039,-3.34997 l 0.0276,-0.25174 1.06503,0.0104 c 0.58576,0.006 1.41793,0.021 1.84925,0.0342 l 0.78425,0.0239 v 0.17884 c -5.8e-4,0.54606 -0.28985,1.93049 -0.57538,2.75423 -0.52512,1.51506 -1.40257,2.96735 -2.48814,4.11816 l -0.28627,0.30347 -0.29045,-0.0795 c -1.07917,-0.29516 -2.17221,-0.12593 -3.07463,0.47604 -0.76389,0.50956 -1.31693,1.28332 -1.54154,2.15678 l -0.0857,0.33314 -0.35035,0.0838 c -0.96038,0.22978 -1.72001,0.31579 -2.73213,0.30939 -0.41536,-0.002 -0.89462,-0.0193 -1.06503,-0.0369 z m -5.76733,-2.26776 c -0.54309,-0.40778 -1.38195,-1.19807 -1.823,-1.71747 -1.01302,-1.19295 -1.77256,-2.59505 -2.24739,-4.14862 l -0.10201,-0.33391 0.26886,-0.27261 c 0.47716,-0.48386 0.80927,-1.06998 0.98125,-1.7318 0.12844,-0.49424 0.12866,-1.32249 5.8e-4,-1.80086 -0.17355,-0.64775 -0.51215,-1.24185 -0.98204,-1.72302 l -0.26437,-0.27075 0.11898,-0.40342 c 0.38636,-1.30991 1.1524,-2.75105 2.07098,-3.89604 0.17041,-0.21241 0.52768,-0.60463 0.79392,-0.8716 0.67348,-0.67527 1.66213,-1.45546 1.73856,-1.37196 0.0412,0.0451 1.86315,3.10489 1.86315,3.12908 0,0.009 -0.15249,0.13938 -0.33887,0.28813 -0.38113,0.30419 -1.02555,0.95442 -1.29323,1.30488 -0.71937,0.94186 -1.21265,2.02237 -1.44701,3.16953 -0.47184,2.30966 0.132,4.69128 1.65119,6.51247 0.31829,0.38156 0.81323,0.85751 1.17618,1.13105 0.12781,0.0964 0.23237,0.19628 0.23237,0.22215 0,0.0551 -1.84521,3.15861 -1.87796,3.15861 -0.0121,0 -0.24619,-0.16824 -0.52002,-0.37384 z m -6.98106,-6.5209 c -0.77647,-0.13987 -1.52827,-0.70603 -1.87301,-1.41047 -0.20542,-0.41978 -0.26951,-0.69654 -0.26951,-1.16378 0,-0.47103 0.0639,-0.74298 0.2773,-1.1812 0.22635,-0.46471 0.6892,-0.92799 1.15564,-1.15672 1.73469,-0.85068 3.75435,0.38173 3.76786,2.29919 0.003,0.46329 -0.0598,0.74099 -0.26632,1.1705 -0.4158,0.86521 -1.26157,1.42303 -2.21819,1.463 -0.2053,0.008 -0.46349,-5.7e-4 -0.57377,-0.0206 z m 21.50879,-3.53372 c -0.079,-0.84654 -0.45456,-1.99269 -0.92618,-2.82697 -0.8706,-1.54014 -2.27462,-2.76507 -3.88292,-3.3877 -1.88759,-0.73075 -3.8491,-0.71849 -5.75844,0.036 -0.16773,0.0663 -0.31111,0.11356 -0.31865,0.10501 -0.0476,-0.0536 -1.76637,-3.16772 -1.76637,-3.20037 0,-0.0433 0.49734,-0.27071 1.06726,-0.48789 1.69699,-0.64662 3.79286,-0.85676 5.67361,-0.56883 0.44422,0.068 1.26902,0.24682 1.29482,0.28069 0.005,0.006 0.0381,0.13259 0.0749,0.28154 0.31806,1.292 1.32149,2.31807 2.64056,2.70012 0.26367,0.0764 0.39369,0.0885 0.94476,0.0884 0.55313,-1.5e-4 0.68559,-0.0127 0.98552,-0.0935 l 0.34651,-0.0934 0.30941,0.32582 c 1.70386,1.79414 2.80611,4.22692 3.0357,6.70014 l 0.0308,0.33278 -1.27596,0.0254 c -0.70177,0.0141 -1.54071,0.0254 -1.86432,0.0254 h -0.58836 z m -1.47954,-8.10263 c -0.74345,-0.15336 -1.43967,-0.69401 -1.77899,-1.38142 -0.39246,-0.7951 -0.39171,-1.55621 0.002,-2.3544 0.42763,-0.86628 1.34495,-1.43327 2.31887,-1.43327 0.97392,0 1.89125,0.56699 2.31887,1.43327 0.46067,0.93321 0.38107,1.87774 -0.23046,2.73474 -0.56493,0.79168 -1.64788,1.2038 -2.6306,1.00108 z"
     style="fill:#eeeeee;fill-opacity:1;stroke-width:0.03872799" />
</svg>
